# xmcd
#
# Track frame offsets: 
#        150
#        18017
#        44926
#        62301
#        78110
#        94824
#        112701
#        125657
#        144105
#        167534
#        189867
#        212056
#
# Disc length: 3075 seconds
#
# Revision: 0
# Processed by: cddbd v1.5.2PL0 Copyright (c) Steve Scherf et al.
# Submitted via: ExactAudioCopyFreeDBPlugin 1.0
#
DISCID=8d0c010c
DTITLE=Squire Red and The Blues Band - An Expected End
DYEAR=2013
DGENRE=Blues
TTITLE0=Dark Journey Rambling
TTITLE1=Rise Above the Ashes They Call Me
TTITLE2=Cincinati Atlanta Tonight
TTITLE3=I Couldn't Outrun The Storm
TTITLE4=Run Jack Rabbit Run
TTITLE5=Tinsel and Treasure Baby
TTITLE6=Mirror Mirror
TTITLE7=Sadd
TTITLE8=Kraig Jarvis
TTITLE9=Hard to Get Her Back
TTITLE10=So Do I
TTITLE11=Locked in A Dungeon
EXTD=
EXTT0=
EXTT1=
EXTT2=
EXTT3=
EXTT4=
EXTT5=
EXTT6=
EXTT7=
EXTT8=
EXTT9=
EXTT10=
EXTT11=
PLAYORDER=
